G04 PROTEUS RS274X GERBER FILE*
%FSLAX45Y45*%
%MOMM*%
G01*
%ADD10C,1.778000*%
%ADD11C,1.016000*%
%ADD12C,2.540000*%
%ADD13C,2.286000*%
%ADD14C,3.048000*%
%ADD15C,2.032000*%
%ADD16R,2.286000X2.286000*%
%ADD17R,1.270000X1.270000*%
%ADD18C,1.270000*%
%ADD19R,2.032000X2.032000*%
%ADD70C,1.500000*%
%ADD71C,0.203200*%
D10*
X-1800000Y-750000D03*
X-784000Y-750000D03*
X-1800000Y-500000D03*
X-784000Y-500000D03*
D11*
X+127000Y-250000D03*
X+0Y-250000D03*
X-127000Y-250000D03*
X+127000Y-750000D03*
X+0Y-750000D03*
X-127000Y-750000D03*
D12*
X+1450000Y+800000D03*
X+1450000Y-400000D03*
X+1250000Y+200000D03*
X+2700000Y-400000D03*
X+2700000Y+800000D03*
X+1450000Y-1150000D03*
X+1450000Y-2350000D03*
X+1250000Y-1750000D03*
X+2700000Y-2350000D03*
X+2700000Y-1150000D03*
D13*
X+600000Y-316000D03*
X+600000Y+700000D03*
X+500000Y-2316000D03*
X+500000Y-1300000D03*
D14*
X+4200000Y-108000D03*
X+4200000Y+400000D03*
X+4200000Y-1308000D03*
X+4200000Y-800000D03*
X+4200000Y-2608000D03*
X+4200000Y-2100000D03*
D15*
X-2162000Y+2938000D03*
X-1908000Y+2938000D03*
X-1654000Y+2938000D03*
X-1400000Y+2938000D03*
D16*
X-4786000Y+1708000D03*
D15*
X-4786000Y+1454000D03*
X-4786000Y+1200000D03*
X-4786000Y+946000D03*
X-4786000Y+692000D03*
X-4786000Y+438000D03*
X-4786000Y+184000D03*
X-4786000Y-70000D03*
X-4786000Y-324000D03*
X-4786000Y-578000D03*
X-4786000Y-832000D03*
X-4786000Y-1086000D03*
X-4786000Y-1340000D03*
X-4786000Y-1594000D03*
X-4786000Y-1848000D03*
X-2500000Y-1848000D03*
X-2500000Y-1594000D03*
X-2500000Y-1340000D03*
X-2500000Y-1086000D03*
X-2500000Y-832000D03*
X-2500000Y-578000D03*
X-2500000Y-324000D03*
X-2500000Y-70000D03*
X-2500000Y+184000D03*
X-2500000Y+438000D03*
X-2500000Y+692000D03*
X-2500000Y+946000D03*
X-2500000Y+1200000D03*
X-2500000Y+1454000D03*
X-2500000Y+1708000D03*
D14*
X-1508000Y-1900000D03*
X-1000000Y-1900000D03*
D10*
X-1816000Y+100000D03*
X-800000Y+100000D03*
X-1800000Y-200000D03*
X-784000Y-200000D03*
D17*
X-400000Y+2000000D03*
D18*
X-400000Y+1746000D03*
X-400000Y+1492000D03*
X+362000Y+1492000D03*
X+362000Y+1746000D03*
X+362000Y+2000000D03*
D17*
X-400000Y+3000000D03*
D18*
X-400000Y+2746000D03*
X-400000Y+2492000D03*
X+362000Y+2492000D03*
X+362000Y+2746000D03*
X+362000Y+3000000D03*
D10*
X+700000Y+2000000D03*
X+1716000Y+2000000D03*
X+700000Y+3000000D03*
X+1716000Y+3000000D03*
D19*
X+2300000Y+2054000D03*
X+2300000Y+1800000D03*
X+2300000Y+1546000D03*
X+2300000Y+3054000D03*
X+2300000Y+2800000D03*
X+2300000Y+2546000D03*
D14*
X+4200000Y+1300000D03*
X+4200000Y+1808000D03*
X+4200000Y+2700000D03*
X+4200000Y+3208000D03*
D70*
X-1900000Y+1650000D03*
X-1900000Y+2300000D03*
X-1450000Y+1650000D03*
X-1450000Y+2300000D03*
X-1900000Y+500000D03*
X-1900000Y+1150000D03*
X-1450000Y+500000D03*
X-1450000Y+1150000D03*
D71*
X-5200000Y-3100000D02*
X+5400000Y-3100000D01*
X+5400000Y+3900000D01*
X-5200000Y+3900000D01*
X-5200000Y-3100000D01*
X-5500000Y+3900000D02*
X-5500000Y-3100000D01*
X-5500000Y+3900000D02*
X-5627000Y+3773000D01*
X-5500000Y+3900000D02*
X-5373000Y+3773000D01*
X-5500000Y-3100000D02*
X-5373000Y-2973000D01*
X-5500000Y-3100000D02*
X-5627000Y-2973000D01*
X-5468250Y+400000D02*
X-5468359Y+402634D01*
X-5469249Y+407903D01*
X-5471111Y+413172D01*
X-5474154Y+418441D01*
X-5478809Y+423643D01*
X-5484078Y+427469D01*
X-5489347Y+429909D01*
X-5494616Y+431290D01*
X-5499885Y+431750D01*
X-5500000Y+431750D01*
X-5531750Y+400000D02*
X-5531641Y+402634D01*
X-5530751Y+407903D01*
X-5528889Y+413172D01*
X-5525846Y+418441D01*
X-5521191Y+423643D01*
X-5515922Y+427469D01*
X-5510653Y+429909D01*
X-5505384Y+431290D01*
X-5500115Y+431750D01*
X-5500000Y+431750D01*
X-5531750Y+400000D02*
X-5531641Y+397366D01*
X-5530751Y+392097D01*
X-5528889Y+386828D01*
X-5525846Y+381559D01*
X-5521191Y+376357D01*
X-5515922Y+372531D01*
X-5510653Y+370091D01*
X-5505384Y+368710D01*
X-5500115Y+368250D01*
X-5500000Y+368250D01*
X-5468250Y+400000D02*
X-5468359Y+397366D01*
X-5469249Y+392097D01*
X-5471111Y+386828D01*
X-5474154Y+381559D01*
X-5478809Y+376357D01*
X-5484078Y+372531D01*
X-5489347Y+370091D01*
X-5494616Y+368710D01*
X-5499885Y+368250D01*
X-5500000Y+368250D01*
X-5667920Y+638125D02*
X-5667920Y+558750D01*
X-5683160Y+558750D01*
X-5759360Y+638125D01*
X-5744120Y+527000D02*
X-5683160Y+527000D01*
X-5667920Y+511125D01*
X-5667920Y+447625D01*
X-5683160Y+431750D01*
X-5744120Y+431750D01*
X-5759360Y+447625D01*
X-5759360Y+511125D01*
X-5744120Y+527000D01*
X-5759360Y+527000D02*
X-5667920Y+431750D01*
X-5759360Y+400000D02*
X-5698400Y+400000D01*
X-5713640Y+400000D02*
X-5698400Y+384125D01*
X-5728880Y+352375D01*
X-5698400Y+320625D01*
X-5713640Y+304750D01*
X-5759360Y+304750D01*
X-5759360Y+273000D02*
X-5698400Y+273000D01*
X-5713640Y+273000D02*
X-5698400Y+257125D01*
X-5728880Y+225375D01*
X-5698400Y+193625D01*
X-5713640Y+177750D01*
X-5759360Y+177750D01*
X-5200000Y+4200000D02*
X+5400000Y+4200000D01*
X-5200000Y+4200000D02*
X-5073000Y+4073000D01*
X-5200000Y+4200000D02*
X-5073000Y+4327000D01*
X+5400000Y+4200000D02*
X+5273000Y+4327000D01*
X+5400000Y+4200000D02*
X+5273000Y+4073000D01*
X+131750Y+4200000D02*
X+131641Y+4202634D01*
X+130751Y+4207903D01*
X+128889Y+4213172D01*
X+125846Y+4218441D01*
X+121191Y+4223643D01*
X+115922Y+4227469D01*
X+110653Y+4229909D01*
X+105384Y+4231290D01*
X+100115Y+4231750D01*
X+100000Y+4231750D01*
X+68250Y+4200000D02*
X+68359Y+4202634D01*
X+69249Y+4207903D01*
X+71111Y+4213172D01*
X+74154Y+4218441D01*
X+78809Y+4223643D01*
X+84078Y+4227469D01*
X+89347Y+4229909D01*
X+94616Y+4231290D01*
X+99885Y+4231750D01*
X+100000Y+4231750D01*
X+68250Y+4200000D02*
X+68359Y+4197366D01*
X+69249Y+4192097D01*
X+71111Y+4186828D01*
X+74154Y+4181559D01*
X+78809Y+4176357D01*
X+84078Y+4172531D01*
X+89347Y+4170091D01*
X+94616Y+4168710D01*
X+99885Y+4168250D01*
X+100000Y+4168250D01*
X+131750Y+4200000D02*
X+131641Y+4197366D01*
X+130751Y+4192097D01*
X+128889Y+4186828D01*
X+125846Y+4181559D01*
X+121191Y+4176357D01*
X+115922Y+4172531D01*
X+110653Y+4170091D01*
X+105384Y+4168710D01*
X+100115Y+4168250D01*
X+100000Y+4168250D01*
X-185750Y+4501600D02*
X-154000Y+4532080D01*
X-154000Y+4440640D01*
X-90500Y+4455880D02*
X-90500Y+4516840D01*
X-74625Y+4532080D01*
X-11125Y+4532080D01*
X+4750Y+4516840D01*
X+4750Y+4455880D01*
X-11125Y+4440640D01*
X-74625Y+4440640D01*
X-90500Y+4455880D01*
X-90500Y+4440640D02*
X+4750Y+4532080D01*
X+131750Y+4516840D02*
X+115875Y+4532080D01*
X+68250Y+4532080D01*
X+52375Y+4516840D01*
X+52375Y+4455880D01*
X+68250Y+4440640D01*
X+115875Y+4440640D01*
X+131750Y+4455880D01*
X+131750Y+4471120D01*
X+115875Y+4486360D01*
X+52375Y+4486360D01*
X+163500Y+4440640D02*
X+163500Y+4501600D01*
X+163500Y+4486360D02*
X+179375Y+4501600D01*
X+211125Y+4471120D01*
X+242875Y+4501600D01*
X+258750Y+4486360D01*
X+258750Y+4440640D01*
X+290500Y+4440640D02*
X+290500Y+4501600D01*
X+290500Y+4486360D02*
X+306375Y+4501600D01*
X+338125Y+4471120D01*
X+369875Y+4501600D01*
X+385750Y+4486360D01*
X+385750Y+4440640D01*
M02*
