M48
METRIC,TZ
T01C0.7620
T02C0.6350
T03C1.5240
T04C1.0160
T05C1.2700
T06C1.0000
%
T01
X-18000Y-7500
X-7840Y-7500
X-18000Y-5000
X-7840Y-5000
X-18160Y+1000
X-8000Y+1000
X-18000Y-2000
X-7840Y-2000
X-4000Y+20000
X-4000Y+17460
X-4000Y+14920
X+3620Y+14920
X+3620Y+17460
X+3620Y+20000
X-4000Y+30000
X-4000Y+27460
X-4000Y+24920
X+3620Y+24920
X+3620Y+27460
X+3620Y+30000
X+7000Y+20000
X+17160Y+20000
X+7000Y+30000
X+17160Y+30000
T02
X+1270Y-2500
X+0Y-2500
X-1270Y-2500
X+1270Y-7500
X+0Y-7500
X-1270Y-7500
T03
X+14500Y+8000
X+14500Y-4000
X+12500Y+2000
X+27000Y-4000
X+27000Y+8000
X+14500Y-11500
X+14500Y-23500
X+12500Y-17500
X+27000Y-23500
X+27000Y-11500
X+42000Y-1080
X+42000Y+4000
X+42000Y-13080
X+42000Y-8000
X+42000Y-26080
X+42000Y-21000
X-15080Y-19000
X-10000Y-19000
X+42000Y+13000
X+42000Y+18080
X+42000Y+27000
X+42000Y+32080
T04
X+6000Y-3160
X+6000Y+7000
X+5000Y-23160
X+5000Y-13000
X-21620Y+29380
X-19080Y+29380
X-16540Y+29380
X-14000Y+29380
X-47860Y+14540
X-47860Y+12000
X-47860Y+9460
X-47860Y+6920
X-47860Y+4380
X-47860Y+1840
X-47860Y-700
X-47860Y-3240
X-47860Y-5780
X-47860Y-8320
X-47860Y-10860
X-47860Y-13400
X-47860Y-15940
X-47860Y-18480
X-25000Y-18480
X-25000Y-15940
X-25000Y-13400
X-25000Y-10860
X-25000Y-8320
X-25000Y-5780
X-25000Y-3240
X-25000Y-700
X-25000Y+1840
X-25000Y+4380
X-25000Y+6920
X-25000Y+9460
X-25000Y+12000
X-25000Y+14540
X-25000Y+17080
X+23000Y+20540
X+23000Y+18000
X+23000Y+15460
X+23000Y+30540
X+23000Y+28000
X+23000Y+25460
T05
X-47860Y+17080
T06
X-19000Y+16500
X-19000Y+23000
X-14500Y+16500
X-14500Y+23000
X-19000Y+5000
X-19000Y+11500
X-14500Y+5000
X-14500Y+11500
M30
