G04 PROTEUS RS274X GERBER FILE*
%FSLAX45Y45*%
%MOMM*%
G01*
%ADD71C,0.203200*%
%ADD30C,0.711200*%
%ADD31C,0.110230*%
%ADD32C,0.406400*%
%ADD33C,0.127000*%
%ADD34C,0.557730*%
%ADD35C,0.914400*%
%ADD36C,0.186690*%
%ADD37C,1.219200*%
%ADD38C,0.238760*%
%ADD39C,0.139330*%
%ADD40C,0.812800*%
%ADD41C,0.055990*%
%ADD42C,0.050000*%
%ADD43C,1.112210*%
%ADD44C,0.122420*%
%ADD45C,0.508000*%
%ADD46C,0.226060*%
%ADD47C,0.194730*%
%ADD25C,0.100000*%
%ADD48C,0.600000*%
%ADD49C,0.227000*%
D71*
X-1888900Y-838900D02*
X-695100Y-838900D01*
X-695100Y-661100D01*
X-1888900Y-661100D01*
X-1888900Y-838900D01*
D30*
X-1800000Y-750000D02*
X-1800000Y-750000D01*
D31*
X-1328982Y-783071D02*
X-1328982Y-716930D01*
X-1266975Y-716930D01*
X-1254573Y-727953D01*
X-1254573Y-738977D01*
X-1266975Y-750000D01*
X-1328982Y-750000D01*
X-1266975Y-750000D02*
X-1254573Y-761024D01*
X-1254573Y-783071D01*
X-1155361Y-727953D02*
X-1167763Y-716930D01*
X-1204967Y-716930D01*
X-1217369Y-727953D01*
X-1217369Y-772048D01*
X-1204967Y-783071D01*
X-1167763Y-783071D01*
X-1155361Y-772048D01*
X-1155361Y-761024D01*
X-1167763Y-750000D01*
X-1217369Y-750000D01*
D71*
X-1888900Y-588900D02*
X-695100Y-588900D01*
X-695100Y-411100D01*
X-1888900Y-411100D01*
X-1888900Y-588900D01*
D30*
X-1800000Y-500000D02*
X-1800000Y-500000D01*
D31*
X-1328982Y-533071D02*
X-1328982Y-466930D01*
X-1266975Y-466930D01*
X-1254573Y-477953D01*
X-1254573Y-488977D01*
X-1266975Y-500000D01*
X-1328982Y-500000D01*
X-1266975Y-500000D02*
X-1254573Y-511024D01*
X-1254573Y-533071D01*
X-1155361Y-466930D02*
X-1217369Y-466930D01*
X-1217369Y-488977D01*
X-1167763Y-488977D01*
X-1155361Y-500000D01*
X-1155361Y-522048D01*
X-1167763Y-533071D01*
X-1204967Y-533071D01*
X-1217369Y-522048D01*
D71*
X-264160Y-514160D02*
X+264160Y-514160D01*
X+264160Y-112840D01*
X-264160Y-112840D01*
X-264160Y-514160D01*
D32*
X+127000Y-250000D02*
X+127000Y-250000D01*
D33*
X-91440Y-427800D02*
X-116840Y-399225D01*
X-116840Y-370650D01*
X-91440Y-342075D01*
X-66040Y-342075D01*
X-40640Y-370650D01*
X-40640Y-399225D01*
X-66040Y-427800D01*
X-91440Y-427800D01*
X-66040Y-370650D02*
X-40640Y-342075D01*
X-91440Y-284925D02*
X-116840Y-256350D01*
X-40640Y-256350D01*
D71*
X-264160Y-1014160D02*
X+264160Y-1014160D01*
X+264160Y-612840D01*
X-264160Y-612840D01*
X-264160Y-1014160D01*
D32*
X+127000Y-750000D02*
X+127000Y-750000D01*
D33*
X-91440Y-927800D02*
X-116840Y-899225D01*
X-116840Y-870650D01*
X-91440Y-842075D01*
X-66040Y-842075D01*
X-40640Y-870650D01*
X-40640Y-899225D01*
X-66040Y-927800D01*
X-91440Y-927800D01*
X-66040Y-870650D02*
X-40640Y-842075D01*
X-104140Y-799213D02*
X-116840Y-784925D01*
X-116840Y-742063D01*
X-104140Y-727775D01*
X-91440Y-727775D01*
X-78740Y-742063D01*
X-78740Y-784925D01*
X-66040Y-799213D01*
X-40640Y-799213D01*
X-40640Y-727775D01*
D71*
X+966840Y-673160D02*
X+3137160Y-673160D01*
X+3137160Y+1047160D01*
X+966840Y+1047160D01*
X+966840Y-673160D01*
D34*
X+1299062Y+19680D02*
X+1299062Y+354320D01*
X+1612786Y+354320D01*
X+1675531Y+298547D01*
X+1675531Y+242773D01*
X+1612786Y+187000D01*
X+1299062Y+187000D01*
X+1612786Y+187000D02*
X+1675531Y+131227D01*
X+1675531Y+19680D01*
X+1801021Y+354320D02*
X+1801021Y+19680D01*
X+2177490Y+19680D01*
X+2428469Y+242773D02*
X+2553959Y+354320D01*
X+2553959Y+19680D01*
D71*
X+966840Y-2623160D02*
X+3137160Y-2623160D01*
X+3137160Y-902840D01*
X+966840Y-902840D01*
X+966840Y-2623160D01*
D34*
X+1299062Y-1930320D02*
X+1299062Y-1595680D01*
X+1612786Y-1595680D01*
X+1675531Y-1651453D01*
X+1675531Y-1707227D01*
X+1612786Y-1763000D01*
X+1299062Y-1763000D01*
X+1612786Y-1763000D02*
X+1675531Y-1818773D01*
X+1675531Y-1930320D01*
X+1801021Y-1595680D02*
X+1801021Y-1930320D01*
X+2177490Y-1930320D01*
X+2365724Y-1651453D02*
X+2428469Y-1595680D01*
X+2616704Y-1595680D01*
X+2679449Y-1651453D01*
X+2679449Y-1707227D01*
X+2616704Y-1763000D01*
X+2428469Y-1763000D01*
X+2365724Y-1818773D01*
X+2365724Y-1930320D01*
X+2679449Y-1930320D01*
D71*
X+457760Y-430300D02*
X+744780Y-430300D01*
X+744780Y+814300D01*
X+457760Y+814300D01*
X+457760Y-430300D01*
D35*
X+600000Y+700000D02*
X+600000Y+700000D01*
D36*
X+657277Y-56031D02*
X+545263Y-56031D01*
X+545263Y+27979D01*
X+582601Y+69984D01*
X+619939Y+69984D01*
X+657277Y+27979D01*
X+657277Y-56031D01*
X+582601Y+153995D02*
X+545263Y+196000D01*
X+657277Y+196000D01*
D71*
X+357760Y-2430300D02*
X+644780Y-2430300D01*
X+644780Y-1185700D01*
X+357760Y-1185700D01*
X+357760Y-2430300D01*
D35*
X+500000Y-1300000D02*
X+500000Y-1300000D01*
D36*
X+557277Y-2056031D02*
X+445263Y-2056031D01*
X+445263Y-1972021D01*
X+482601Y-1930016D01*
X+519939Y-1930016D01*
X+557277Y-1972021D01*
X+557277Y-2056031D01*
X+463932Y-1867008D02*
X+445263Y-1846005D01*
X+445263Y-1782997D01*
X+463932Y-1761995D01*
X+482601Y-1761995D01*
X+501270Y-1782997D01*
X+501270Y-1846005D01*
X+519939Y-1867008D01*
X+557277Y-1867008D01*
X+557277Y-1761995D01*
D71*
X+3681840Y-372160D02*
X+4718160Y-372160D01*
X+4718160Y+664160D01*
X+3681840Y+664160D01*
X+3681840Y-372160D01*
D37*
X+4200000Y-108000D02*
X+4200000Y-108000D01*
D38*
X+3770232Y+332436D02*
X+3823953Y+380188D01*
X+3877674Y+380188D01*
X+3931395Y+332436D01*
X+3931395Y+284684D01*
X+3877674Y+236932D01*
X+3823953Y+236932D01*
X+3770232Y+284684D01*
X+3770232Y+332436D01*
X+3985116Y+380188D02*
X+3985116Y+260808D01*
X+4011976Y+236932D01*
X+4119418Y+236932D01*
X+4146279Y+260808D01*
X+4146279Y+380188D01*
X+4200000Y+380188D02*
X+4361163Y+380188D01*
X+4280581Y+380188D02*
X+4280581Y+236932D01*
X+4468605Y+332436D02*
X+4522326Y+380188D01*
X+4522326Y+236932D01*
D71*
X+3681840Y-1572160D02*
X+4718160Y-1572160D01*
X+4718160Y-535840D01*
X+3681840Y-535840D01*
X+3681840Y-1572160D01*
D37*
X+4200000Y-1308000D02*
X+4200000Y-1308000D01*
D38*
X+3770232Y-867564D02*
X+3823953Y-819812D01*
X+3877674Y-819812D01*
X+3931395Y-867564D01*
X+3931395Y-915316D01*
X+3877674Y-963068D01*
X+3823953Y-963068D01*
X+3770232Y-915316D01*
X+3770232Y-867564D01*
X+3985116Y-819812D02*
X+3985116Y-939192D01*
X+4011976Y-963068D01*
X+4119418Y-963068D01*
X+4146279Y-939192D01*
X+4146279Y-819812D01*
X+4200000Y-819812D02*
X+4361163Y-819812D01*
X+4280581Y-819812D02*
X+4280581Y-963068D01*
X+4441744Y-843688D02*
X+4468605Y-819812D01*
X+4549186Y-819812D01*
X+4576047Y-843688D01*
X+4576047Y-867564D01*
X+4549186Y-891440D01*
X+4468605Y-891440D01*
X+4441744Y-915316D01*
X+4441744Y-963068D01*
X+4576047Y-963068D01*
D71*
X+3681840Y-2872160D02*
X+4718160Y-2872160D01*
X+4718160Y-1835840D01*
X+3681840Y-1835840D01*
X+3681840Y-2872160D01*
D37*
X+4200000Y-2608000D02*
X+4200000Y-2608000D01*
D39*
X+3776765Y-2163573D02*
X+3792440Y-2149639D01*
X+3839466Y-2149639D01*
X+3855142Y-2163573D01*
X+3855142Y-2177506D01*
X+3839466Y-2191440D01*
X+3792440Y-2191440D01*
X+3776765Y-2205374D01*
X+3776765Y-2233241D01*
X+3855142Y-2233241D01*
X+3902168Y-2163573D02*
X+3917843Y-2149639D01*
X+3964869Y-2149639D01*
X+3980545Y-2163573D01*
X+3980545Y-2177506D01*
X+3964869Y-2191440D01*
X+3917843Y-2191440D01*
X+3902168Y-2205374D01*
X+3902168Y-2233241D01*
X+3980545Y-2233241D01*
X+4011896Y-2219307D02*
X+4011896Y-2163573D01*
X+4027571Y-2149639D01*
X+4090272Y-2149639D01*
X+4105948Y-2163573D01*
X+4105948Y-2219307D01*
X+4090272Y-2233241D01*
X+4027571Y-2233241D01*
X+4011896Y-2219307D01*
X+4011896Y-2233241D02*
X+4105948Y-2149639D01*
X+4137299Y-2149639D02*
X+4137299Y-2191440D01*
X+4184325Y-2233241D01*
X+4231351Y-2191440D01*
X+4231351Y-2149639D01*
X+4403780Y-2149639D02*
X+4466481Y-2149639D01*
X+4435131Y-2149639D02*
X+4435131Y-2233241D01*
X+4403780Y-2233241D02*
X+4466481Y-2233241D01*
X+4513508Y-2233241D02*
X+4513508Y-2149639D01*
X+4607560Y-2233241D01*
X+4607560Y-2149639D01*
D71*
X-2426160Y+2673840D02*
X-1135840Y+2673840D01*
X-1135840Y+3329160D01*
X-2426160Y+3329160D01*
X-2426160Y+2673840D01*
D40*
X-2162000Y+2938000D02*
X-2162000Y+2938000D01*
D41*
X-2019130Y+2990302D02*
X-2025429Y+2984703D01*
X-2044326Y+2984703D01*
X-2056923Y+2995901D01*
X-2056923Y+3007099D01*
X-2044326Y+3018297D01*
X-2025429Y+3018297D01*
X-2019130Y+3012698D01*
X-2006532Y+2984703D02*
X-2006532Y+3007099D01*
X-1993935Y+3018297D01*
X-1981337Y+3018297D01*
X-1968739Y+3007099D01*
X-1968739Y+2984703D01*
X-2006532Y+2995901D02*
X-1968739Y+2995901D01*
X-1956141Y+2984703D02*
X-1956141Y+3018297D01*
X-1937245Y+3001500D01*
X-1918348Y+3018297D01*
X-1918348Y+2984703D01*
X-1855359Y+2984703D02*
X-1855359Y+3018297D01*
X-1823865Y+3018297D01*
X-1817566Y+3012698D01*
X-1817566Y+3007099D01*
X-1823865Y+3001500D01*
X-1817566Y+2995901D01*
X-1817566Y+2990302D01*
X-1823865Y+2984703D01*
X-1855359Y+2984703D01*
X-1855359Y+3001500D02*
X-1823865Y+3001500D01*
X-1798670Y+3018297D02*
X-1773474Y+3018297D01*
X-1786072Y+3018297D02*
X-1786072Y+2984703D01*
X-1798670Y+2984703D02*
X-1773474Y+2984703D01*
X-1716784Y+2984703D02*
X-1754577Y+2984703D01*
X-1754577Y+3018297D01*
X-1716784Y+3018297D01*
X-1754577Y+3001500D02*
X-1729382Y+3001500D01*
X-1704186Y+2984703D02*
X-1704186Y+3018297D01*
X-1666393Y+2984703D01*
X-1666393Y+3018297D01*
X-1603404Y+2984703D02*
X-1603404Y+3007099D01*
X-1590807Y+3018297D01*
X-1578209Y+3018297D01*
X-1565611Y+3007099D01*
X-1565611Y+2984703D01*
X-1603404Y+2995901D02*
X-1565611Y+2995901D01*
X-1553013Y+2984703D02*
X-1553013Y+3018297D01*
X-1515220Y+2984703D01*
X-1515220Y+3018297D01*
X-1502622Y+2984703D02*
X-1502622Y+3018297D01*
X-1464829Y+3018297D02*
X-1464829Y+2984703D01*
X-1502622Y+3001500D02*
X-1464829Y+3001500D01*
X-1401840Y+2990302D02*
X-1395542Y+2984703D01*
X-1370346Y+2984703D01*
X-1364047Y+2990302D01*
X-1364047Y+2995901D01*
X-1370346Y+3001500D01*
X-1395542Y+3001500D01*
X-1401840Y+3007099D01*
X-1401840Y+3012698D01*
X-1395542Y+3018297D01*
X-1370346Y+3018297D01*
X-1364047Y+3012698D01*
X-1351449Y+2984703D02*
X-1351449Y+3007099D01*
X-1338852Y+3018297D01*
X-1326254Y+3018297D01*
X-1313656Y+3007099D01*
X-1313656Y+2984703D01*
X-1351449Y+2995901D02*
X-1313656Y+2995901D01*
X-1301058Y+2984703D02*
X-1301058Y+3018297D01*
X-1263265Y+2984703D01*
X-1263265Y+3018297D01*
X-1225472Y+2995901D02*
X-1212874Y+2995901D01*
X-1212874Y+2984703D01*
X-1238070Y+2984703D01*
X-1250667Y+2995901D01*
X-1250667Y+3007099D01*
X-1238070Y+3018297D01*
X-1219173Y+3018297D01*
X-1212874Y+3012698D01*
D42*
X-4873000Y-2508000D02*
X-2413000Y-2508000D01*
X-2413000Y+2368000D01*
X-4873000Y+2368000D01*
X-4873000Y-2508000D01*
D35*
X-4786000Y+1708000D02*
X-4786000Y+1708000D01*
D43*
X-3909054Y-1070991D02*
X-3352947Y-1070991D01*
X-3241726Y-945868D01*
X-3241726Y-445372D01*
X-3352947Y-320248D01*
X-3909054Y-320248D01*
X-3909054Y+680743D02*
X-3909054Y+55123D01*
X-3686611Y+55123D01*
X-3686611Y+555619D01*
X-3575390Y+680743D01*
X-3352947Y+680743D01*
X-3241726Y+555619D01*
X-3241726Y+180247D01*
X-3352947Y+55123D01*
D71*
X-1772160Y-2418160D02*
X-735840Y-2418160D01*
X-735840Y-1381840D01*
X-1772160Y-1381840D01*
X-1772160Y-2418160D01*
D37*
X-1508000Y-1900000D02*
X-1508000Y-1900000D01*
D44*
X-1054711Y-2340740D02*
X-1128168Y-2340740D01*
X-1054711Y-2258102D01*
X-1128168Y-2258102D01*
X-1079197Y-2175463D02*
X-1079197Y-2147917D01*
X-1054711Y-2147917D01*
X-1054711Y-2203009D01*
X-1079197Y-2230555D01*
X-1103682Y-2230555D01*
X-1128168Y-2203009D01*
X-1128168Y-2161690D01*
X-1115925Y-2147917D01*
X-1128168Y-2120370D02*
X-1066954Y-2120370D01*
X-1054711Y-2106597D01*
X-1054711Y-2051505D01*
X-1066954Y-2037732D01*
X-1128168Y-2037732D01*
X-1103682Y-2010185D02*
X-1128168Y-1982639D01*
X-1128168Y-1955093D01*
X-1103682Y-1927547D01*
X-1079197Y-1927547D01*
X-1054711Y-1955093D01*
X-1054711Y-1982639D01*
X-1079197Y-2010185D01*
X-1103682Y-2010185D01*
X-1054711Y-1900000D02*
X-1128168Y-1900000D01*
X-1054711Y-1817362D01*
X-1128168Y-1817362D01*
X-1128168Y-1596992D02*
X-1128168Y-1665857D01*
X-1103682Y-1665857D01*
X-1103682Y-1610765D01*
X-1091440Y-1596992D01*
X-1066954Y-1596992D01*
X-1054711Y-1610765D01*
X-1054711Y-1652084D01*
X-1066954Y-1665857D01*
X-1128168Y-1569445D02*
X-1091440Y-1569445D01*
X-1054711Y-1528126D01*
X-1091440Y-1486807D01*
X-1128168Y-1486807D01*
D71*
X-1904900Y+11100D02*
X-711100Y+11100D01*
X-711100Y+188900D01*
X-1904900Y+188900D01*
X-1904900Y+11100D01*
D30*
X-1816000Y+100000D02*
X-1816000Y+100000D01*
D31*
X-1344982Y+66929D02*
X-1344982Y+133070D01*
X-1282975Y+133070D01*
X-1270573Y+122047D01*
X-1270573Y+111023D01*
X-1282975Y+100000D01*
X-1344982Y+100000D01*
X-1282975Y+100000D02*
X-1270573Y+88976D01*
X-1270573Y+66929D01*
X-1220967Y+111023D02*
X-1196164Y+133070D01*
X-1196164Y+66929D01*
D71*
X-1888900Y-288900D02*
X-695100Y-288900D01*
X-695100Y-111100D01*
X-1888900Y-111100D01*
X-1888900Y-288900D01*
D30*
X-1800000Y-200000D02*
X-1800000Y-200000D01*
D31*
X-1328982Y-233071D02*
X-1328982Y-166930D01*
X-1266975Y-166930D01*
X-1254573Y-177953D01*
X-1254573Y-188977D01*
X-1266975Y-200000D01*
X-1328982Y-200000D01*
X-1266975Y-200000D02*
X-1254573Y-211024D01*
X-1254573Y-233071D01*
X-1155361Y-211024D02*
X-1229770Y-211024D01*
X-1180164Y-166930D01*
X-1180164Y-233071D01*
D71*
X-463500Y+1354840D02*
X+425500Y+1354840D01*
X+425500Y+2137160D01*
X-463500Y+2137160D01*
X-463500Y+1354840D01*
D45*
X-400000Y+2000000D02*
X-400000Y+2000000D01*
D46*
X-178004Y+1813818D02*
X-178004Y+1700788D01*
X-152573Y+1678182D01*
X-50846Y+1678182D01*
X-25414Y+1700788D01*
X-25414Y+1813818D01*
X+50881Y+1791212D02*
X+76313Y+1813818D01*
X+152608Y+1813818D01*
X+178040Y+1791212D01*
X+178040Y+1768606D01*
X+152608Y+1746000D01*
X+76313Y+1746000D01*
X+50881Y+1723394D01*
X+50881Y+1678182D01*
X+178040Y+1678182D01*
D71*
X-463500Y+2354840D02*
X+425500Y+2354840D01*
X+425500Y+3137160D01*
X-463500Y+3137160D01*
X-463500Y+2354840D01*
D45*
X-400000Y+3000000D02*
X-400000Y+3000000D01*
D46*
X-178004Y+2813818D02*
X-178004Y+2700788D01*
X-152573Y+2678182D01*
X-50846Y+2678182D01*
X-25414Y+2700788D01*
X-25414Y+2813818D01*
X+50881Y+2791212D02*
X+76313Y+2813818D01*
X+152608Y+2813818D01*
X+178040Y+2791212D01*
X+178040Y+2768606D01*
X+152608Y+2746000D01*
X+178040Y+2723394D01*
X+178040Y+2700788D01*
X+152608Y+2678182D01*
X+76313Y+2678182D01*
X+50881Y+2700788D01*
X+101745Y+2746000D02*
X+152608Y+2746000D01*
D71*
X+611100Y+1911100D02*
X+1804900Y+1911100D01*
X+1804900Y+2088900D01*
X+611100Y+2088900D01*
X+611100Y+1911100D01*
D30*
X+700000Y+2000000D02*
X+700000Y+2000000D01*
D31*
X+1171018Y+1966929D02*
X+1171018Y+2033070D01*
X+1233025Y+2033070D01*
X+1245427Y+2022047D01*
X+1245427Y+2011023D01*
X+1233025Y+2000000D01*
X+1171018Y+2000000D01*
X+1233025Y+2000000D02*
X+1245427Y+1988976D01*
X+1245427Y+1966929D01*
X+1282631Y+2022047D02*
X+1295033Y+2033070D01*
X+1332237Y+2033070D01*
X+1344639Y+2022047D01*
X+1344639Y+2011023D01*
X+1332237Y+2000000D01*
X+1295033Y+2000000D01*
X+1282631Y+1988976D01*
X+1282631Y+1966929D01*
X+1344639Y+1966929D01*
D71*
X+611100Y+2911100D02*
X+1804900Y+2911100D01*
X+1804900Y+3088900D01*
X+611100Y+3088900D01*
X+611100Y+2911100D01*
D30*
X+700000Y+3000000D02*
X+700000Y+3000000D01*
D31*
X+1171018Y+2966929D02*
X+1171018Y+3033070D01*
X+1233025Y+3033070D01*
X+1245427Y+3022047D01*
X+1245427Y+3011023D01*
X+1233025Y+3000000D01*
X+1171018Y+3000000D01*
X+1233025Y+3000000D02*
X+1245427Y+2988976D01*
X+1245427Y+2966929D01*
X+1282631Y+3022047D02*
X+1295033Y+3033070D01*
X+1332237Y+3033070D01*
X+1344639Y+3022047D01*
X+1344639Y+3011023D01*
X+1332237Y+3000000D01*
X+1344639Y+2988976D01*
X+1344639Y+2977952D01*
X+1332237Y+2966929D01*
X+1295033Y+2966929D01*
X+1282631Y+2977952D01*
X+1307434Y+3000000D02*
X+1332237Y+3000000D01*
D71*
X+2162840Y+1408840D02*
X+2564160Y+1408840D01*
X+2564160Y+2191160D01*
X+2162840Y+2191160D01*
X+2162840Y+1408840D01*
D40*
X+2300000Y+2054000D02*
X+2300000Y+2054000D01*
D47*
X+2305080Y+1535841D02*
X+2402447Y+1535841D01*
X+2421920Y+1557748D01*
X+2421920Y+1645377D01*
X+2402447Y+1667285D01*
X+2305080Y+1667285D01*
X+2382973Y+1842544D02*
X+2382973Y+1711100D01*
X+2305080Y+1798729D01*
X+2421920Y+1798729D01*
D71*
X+2162840Y+2408840D02*
X+2564160Y+2408840D01*
X+2564160Y+3191160D01*
X+2162840Y+3191160D01*
X+2162840Y+2408840D01*
D40*
X+2300000Y+3054000D02*
X+2300000Y+3054000D01*
D47*
X+2305080Y+2535841D02*
X+2402447Y+2535841D01*
X+2421920Y+2557748D01*
X+2421920Y+2645377D01*
X+2402447Y+2667285D01*
X+2305080Y+2667285D01*
X+2324553Y+2842544D02*
X+2305080Y+2820636D01*
X+2305080Y+2754914D01*
X+2324553Y+2733007D01*
X+2402447Y+2733007D01*
X+2421920Y+2754914D01*
X+2421920Y+2820636D01*
X+2402447Y+2842544D01*
X+2382973Y+2842544D01*
X+2363500Y+2820636D01*
X+2363500Y+2733007D01*
D71*
X+3681840Y+1035840D02*
X+4718160Y+1035840D01*
X+4718160Y+2072160D01*
X+3681840Y+2072160D01*
X+3681840Y+1035840D01*
D37*
X+4200000Y+1300000D02*
X+4200000Y+1300000D01*
D38*
X+3770232Y+1740436D02*
X+3823953Y+1788188D01*
X+3877674Y+1788188D01*
X+3931395Y+1740436D01*
X+3931395Y+1692684D01*
X+3877674Y+1644932D01*
X+3823953Y+1644932D01*
X+3770232Y+1692684D01*
X+3770232Y+1740436D01*
X+3985116Y+1788188D02*
X+3985116Y+1668808D01*
X+4011976Y+1644932D01*
X+4119418Y+1644932D01*
X+4146279Y+1668808D01*
X+4146279Y+1788188D01*
X+4200000Y+1788188D02*
X+4361163Y+1788188D01*
X+4280581Y+1788188D02*
X+4280581Y+1644932D01*
X+4441744Y+1764312D02*
X+4468605Y+1788188D01*
X+4549186Y+1788188D01*
X+4576047Y+1764312D01*
X+4576047Y+1740436D01*
X+4549186Y+1716560D01*
X+4576047Y+1692684D01*
X+4576047Y+1668808D01*
X+4549186Y+1644932D01*
X+4468605Y+1644932D01*
X+4441744Y+1668808D01*
X+4495465Y+1716560D02*
X+4549186Y+1716560D01*
D71*
X+3681840Y+2435840D02*
X+4718160Y+2435840D01*
X+4718160Y+3472160D01*
X+3681840Y+3472160D01*
X+3681840Y+2435840D01*
D37*
X+4200000Y+2700000D02*
X+4200000Y+2700000D01*
D38*
X+3770232Y+3140436D02*
X+3823953Y+3188188D01*
X+3877674Y+3188188D01*
X+3931395Y+3140436D01*
X+3931395Y+3092684D01*
X+3877674Y+3044932D01*
X+3823953Y+3044932D01*
X+3770232Y+3092684D01*
X+3770232Y+3140436D01*
X+3985116Y+3188188D02*
X+3985116Y+3068808D01*
X+4011976Y+3044932D01*
X+4119418Y+3044932D01*
X+4146279Y+3068808D01*
X+4146279Y+3188188D01*
X+4200000Y+3188188D02*
X+4361163Y+3188188D01*
X+4280581Y+3188188D02*
X+4280581Y+3044932D01*
X+4576047Y+3092684D02*
X+4414884Y+3092684D01*
X+4522326Y+3188188D01*
X+4522326Y+3044932D01*
D71*
X-5200000Y-3100000D02*
X+5400000Y-3100000D01*
X+5400000Y+3900000D01*
X-5200000Y+3900000D01*
X-5200000Y-3100000D01*
D25*
X-2075000Y+1475000D02*
X-1275000Y+1475000D01*
X-1275000Y+2475000D01*
X-2075000Y+2475000D01*
X-2075000Y+1475000D01*
D48*
X-1900000Y+1650000D02*
X-1900000Y+1650000D01*
D49*
X-1879301Y+2148100D02*
X-1879301Y+2034599D01*
X-1853764Y+2011899D01*
X-1751613Y+2011899D01*
X-1726076Y+2034599D01*
X-1726076Y+2148100D01*
X-1623925Y+2102700D02*
X-1572850Y+2148100D01*
X-1572850Y+2011899D01*
D25*
X-2075000Y+325000D02*
X-1275000Y+325000D01*
X-1275000Y+1325000D01*
X-2075000Y+1325000D01*
X-2075000Y+325000D01*
D48*
X-1900000Y+500000D02*
X-1900000Y+500000D01*
D49*
X-1879301Y+998100D02*
X-1879301Y+884599D01*
X-1853764Y+861899D01*
X-1751613Y+861899D01*
X-1726076Y+884599D01*
X-1726076Y+998100D01*
X-1649463Y+998100D02*
X-1521775Y+998100D01*
X-1521775Y+975400D01*
X-1649463Y+861899D01*
D71*
X-5500000Y+3900000D02*
X-5500000Y-3100000D01*
X-5500000Y+3900000D02*
X-5627000Y+3773000D01*
X-5500000Y+3900000D02*
X-5373000Y+3773000D01*
X-5500000Y-3100000D02*
X-5373000Y-2973000D01*
X-5500000Y-3100000D02*
X-5627000Y-2973000D01*
X-5468250Y+400000D02*
X-5468359Y+402634D01*
X-5469249Y+407903D01*
X-5471111Y+413172D01*
X-5474154Y+418441D01*
X-5478809Y+423643D01*
X-5484078Y+427469D01*
X-5489347Y+429909D01*
X-5494616Y+431290D01*
X-5499885Y+431750D01*
X-5500000Y+431750D01*
X-5531750Y+400000D02*
X-5531641Y+402634D01*
X-5530751Y+407903D01*
X-5528889Y+413172D01*
X-5525846Y+418441D01*
X-5521191Y+423643D01*
X-5515922Y+427469D01*
X-5510653Y+429909D01*
X-5505384Y+431290D01*
X-5500115Y+431750D01*
X-5500000Y+431750D01*
X-5531750Y+400000D02*
X-5531641Y+397366D01*
X-5530751Y+392097D01*
X-5528889Y+386828D01*
X-5525846Y+381559D01*
X-5521191Y+376357D01*
X-5515922Y+372531D01*
X-5510653Y+370091D01*
X-5505384Y+368710D01*
X-5500115Y+368250D01*
X-5500000Y+368250D01*
X-5468250Y+400000D02*
X-5468359Y+397366D01*
X-5469249Y+392097D01*
X-5471111Y+386828D01*
X-5474154Y+381559D01*
X-5478809Y+376357D01*
X-5484078Y+372531D01*
X-5489347Y+370091D01*
X-5494616Y+368710D01*
X-5499885Y+368250D01*
X-5500000Y+368250D01*
X-5667920Y+638125D02*
X-5667920Y+558750D01*
X-5683160Y+558750D01*
X-5759360Y+638125D01*
X-5744120Y+527000D02*
X-5683160Y+527000D01*
X-5667920Y+511125D01*
X-5667920Y+447625D01*
X-5683160Y+431750D01*
X-5744120Y+431750D01*
X-5759360Y+447625D01*
X-5759360Y+511125D01*
X-5744120Y+527000D01*
X-5759360Y+527000D02*
X-5667920Y+431750D01*
X-5759360Y+400000D02*
X-5698400Y+400000D01*
X-5713640Y+400000D02*
X-5698400Y+384125D01*
X-5728880Y+352375D01*
X-5698400Y+320625D01*
X-5713640Y+304750D01*
X-5759360Y+304750D01*
X-5759360Y+273000D02*
X-5698400Y+273000D01*
X-5713640Y+273000D02*
X-5698400Y+257125D01*
X-5728880Y+225375D01*
X-5698400Y+193625D01*
X-5713640Y+177750D01*
X-5759360Y+177750D01*
X-5200000Y+4200000D02*
X+5400000Y+4200000D01*
X-5200000Y+4200000D02*
X-5073000Y+4073000D01*
X-5200000Y+4200000D02*
X-5073000Y+4327000D01*
X+5400000Y+4200000D02*
X+5273000Y+4327000D01*
X+5400000Y+4200000D02*
X+5273000Y+4073000D01*
X+131750Y+4200000D02*
X+131641Y+4202634D01*
X+130751Y+4207903D01*
X+128889Y+4213172D01*
X+125846Y+4218441D01*
X+121191Y+4223643D01*
X+115922Y+4227469D01*
X+110653Y+4229909D01*
X+105384Y+4231290D01*
X+100115Y+4231750D01*
X+100000Y+4231750D01*
X+68250Y+4200000D02*
X+68359Y+4202634D01*
X+69249Y+4207903D01*
X+71111Y+4213172D01*
X+74154Y+4218441D01*
X+78809Y+4223643D01*
X+84078Y+4227469D01*
X+89347Y+4229909D01*
X+94616Y+4231290D01*
X+99885Y+4231750D01*
X+100000Y+4231750D01*
X+68250Y+4200000D02*
X+68359Y+4197366D01*
X+69249Y+4192097D01*
X+71111Y+4186828D01*
X+74154Y+4181559D01*
X+78809Y+4176357D01*
X+84078Y+4172531D01*
X+89347Y+4170091D01*
X+94616Y+4168710D01*
X+99885Y+4168250D01*
X+100000Y+4168250D01*
X+131750Y+4200000D02*
X+131641Y+4197366D01*
X+130751Y+4192097D01*
X+128889Y+4186828D01*
X+125846Y+4181559D01*
X+121191Y+4176357D01*
X+115922Y+4172531D01*
X+110653Y+4170091D01*
X+105384Y+4168710D01*
X+100115Y+4168250D01*
X+100000Y+4168250D01*
X-185750Y+4501600D02*
X-154000Y+4532080D01*
X-154000Y+4440640D01*
X-90500Y+4455880D02*
X-90500Y+4516840D01*
X-74625Y+4532080D01*
X-11125Y+4532080D01*
X+4750Y+4516840D01*
X+4750Y+4455880D01*
X-11125Y+4440640D01*
X-74625Y+4440640D01*
X-90500Y+4455880D01*
X-90500Y+4440640D02*
X+4750Y+4532080D01*
X+131750Y+4516840D02*
X+115875Y+4532080D01*
X+68250Y+4532080D01*
X+52375Y+4516840D01*
X+52375Y+4455880D01*
X+68250Y+4440640D01*
X+115875Y+4440640D01*
X+131750Y+4455880D01*
X+131750Y+4471120D01*
X+115875Y+4486360D01*
X+52375Y+4486360D01*
X+163500Y+4440640D02*
X+163500Y+4501600D01*
X+163500Y+4486360D02*
X+179375Y+4501600D01*
X+211125Y+4471120D01*
X+242875Y+4501600D01*
X+258750Y+4486360D01*
X+258750Y+4440640D01*
X+290500Y+4440640D02*
X+290500Y+4501600D01*
X+290500Y+4486360D02*
X+306375Y+4501600D01*
X+338125Y+4471120D01*
X+369875Y+4501600D01*
X+385750Y+4486360D01*
X+385750Y+4440640D01*
M02*
